<svg width="1440" height="113" viewBox="0 0 1440 113" fill="none" xmlns="http://www.w3.org/2000/svg">
<path fill-rule="evenodd" clip-rule="evenodd" d="M18.7833 62.7959C9.23584 62.4881 1.08497 62.2254 4.46349e-06 61.944L0 113L1440 113L1440 6.87937C1438.2 7.46127 1436.47 8.1335 1434.84 8.88973C1430.71 -6.09381 1423.05 0.575743 1413.23 9.13113C1404.2 16.9908 1393.35 26.4421 1381.73 22.1585C1379.43 23.8124 1377.31 25.3706 1375.34 26.8237C1358.39 39.306 1351.98 44.0287 1329.98 35.0249C1322.13 37.172 1315.57 37.6244 1309.7 38.0296C1299.73 38.717 1291.73 39.2688 1282.74 47.7307C1272.5 35.5685 1265.35 40.1801 1256.38 45.968C1251.02 49.4222 1245.02 53.2953 1237.32 54.2721C1235.89 52.9892 1234.44 51.6265 1232.97 50.2475C1220.56 38.5748 1206.9 25.7295 1193.24 50.1102C1187.56 55.7433 1180.33 52.8786 1173.3 50.0892C1165.19 46.8758 1157.34 43.7622 1152.39 53.8572C1134.96 22.8873 1123.17 29.4622 1111.56 35.9358C1105.48 39.3261 1099.45 42.6887 1092.69 40.6157C1088.8 41.5596 1085.02 43.2747 1081.22 44.9987C1070.77 49.7373 1060.17 54.5434 1046.81 43.591C1040.51 38.0478 1033.44 41.5925 1026.34 45.1481C1017.69 49.4845 1009 53.8373 1001.65 41.7415C990.593 41.1585 975.445 47.8863 966.161 58.3403C957.867 65.0472 950.698 60.8352 942.708 56.1404C937.358 52.9966 931.639 49.6364 924.967 49.1929C923.662 49.0115 922.311 49.0115 921.006 49.1929C917.403 48.1698 913.579 47.4923 909.662 47.1826C908.235 47.1826 906.815 47.1344 905.366 47.0852C903.855 47.034 902.312 46.9816 900.694 46.9816C897.517 46.7603 894.012 47.8652 890.509 48.9698C885.104 50.6739 879.703 52.3769 875.511 49.2054C874.3 48.525 873.301 47.7069 872.565 46.7931C866.895 41.8938 862.147 41.8356 856.719 41.769C851.588 41.7061 845.85 41.6357 838.152 37.4648C831.615 35.9823 828.063 39.3723 824.367 42.9002C819.642 47.4099 814.682 52.1448 802.947 47.2156C797.284 42.3953 790.519 42.9374 783.884 43.469C778.454 43.904 773.113 44.3321 768.535 41.8076C765.358 42.5109 762.758 43.264 760.45 43.9325C752.927 46.1114 748.508 47.3911 737.354 43.1143C731.291 33.9115 719.3 41.5077 712.271 45.9611C710.593 47.0238 709.198 47.9076 708.233 48.3414C706.751 54.0754 703.037 52.4287 698.188 50.2786C692.462 47.7399 685.153 44.4994 678.067 51.8796C663.395 47.9731 650.98 48.9029 635.193 50.0854C632.943 50.2538 630.625 50.4274 628.223 50.5929C619.638 53.8572 612.214 49.6067 605.175 45.5768C596.52 40.6221 588.449 36.0008 579.519 46.0897C561.996 47.7784 546.564 48.9043 531.988 41.4256C525.156 40.7519 519.744 41.0516 514.295 41.3534C506.249 41.799 498.121 42.2491 485.217 39.5761C476.906 43.3089 469.35 44.8219 461.45 46.404C453.99 47.8979 446.223 49.4535 437.22 52.9977C429.822 54.1245 422.955 56.6358 416.66 58.9378C406.668 62.5916 398.118 65.7182 391.178 61.9442C380.866 69.4733 368.165 62.3941 357.01 56.1769C349.073 51.7529 341.919 47.7654 336.965 49.788C328.445 48.788 321.503 52.5076 314.873 56.0601C306.709 60.4349 299.017 64.5562 289.434 59.2973C288.092 59.6882 286.19 61.128 283.867 62.8859C276.155 68.7232 263.808 78.0681 251.948 64.1623C246.11 64.2275 242.472 67.3004 239.444 69.8579C234.073 74.3943 230.621 77.3094 220.22 58.9431C213.587 75.6829 206.282 68.6091 200.028 62.5535C194.212 56.9221 189.306 52.1712 186.695 68.2712C175.509 81.9017 165.94 84.1934 142.839 78.1622C137.151 75.4569 132.296 71.406 127.915 67.7505C116.897 58.5566 108.875 51.8635 98.1284 75.3678C94.8785 75.5291 91.9042 76.025 89.0153 76.5067C78.5808 78.2464 69.2598 79.8005 52.0867 64.7328C51.0072 63.8346 33.2844 63.2634 18.7833 62.7959Z" fill="#F9F9F9"/>
</svg>
